<?xml version="1.0" standalone="no"?><!DOCTYPE svg PUBLIC "-//W3C//DTD SVG 1.1//EN" "http://www.w3.org/Graphics/SVG/1.1/DTD/svg11.dtd"><svg t="1564363669684" class="icon" viewBox="0 0 4096 1024" version="1.1" xmlns="http://www.w3.org/2000/svg" p-id="3555" xmlns:xlink="http://www.w3.org/1999/xlink" width="800" height="200"><defs><style type="text/css"></style></defs><path d="M524.8 26.88C259.84 26.88 44.8 241.92 44.8 506.88S259.84 985.6 524.8 985.6s480-215.04 480-480S789.76 26.88 524.8 26.88z m126.72 583.68c-32 0-111.36 1.28-111.36 1.28l-35.84 138.24H355.84L390.4 614.4H158.72l37.12-111.36s403.2 1.28 436.48 0c33.28-1.28 84.48-8.96 85.76-75.52 1.28-90.88-138.24-85.76-149.76-5.12-7.68 51.2-7.68 64-7.68 64H428.8l25.6-120.32H240.64l32-112.64s313.6 1.28 372.48 1.28 216.32 15.36 216.32 160c0 158.72-152.32 195.84-209.92 195.84z" fill="#1A72FE" p-id="3556"></path><path d="M1393.92 359.68h113.92l-40.96 147.2h125.44l40.96-147.2h110.08l-106.24 385.28h-103.68l35.84-149.76h-128l-43.52 149.76h-108.8zM1743.36 450.56h106.24l5.12 172.8 99.84-172.8h107.52l-171.52 271.36s-56.32 101.12-140.8 104.96c-38.4 0-57.6-6.4-76.8-21.76 11.52-17.92 33.28-60.16 33.28-60.16s23.04 20.48 57.6 7.68c20.48-7.68 14.08-39.68 14.08-39.68l-34.56-262.4z" fill="#0E1523" p-id="3557"></path><path d="M3733.76 450.56h106.24l5.12 172.8 99.84-172.8h107.52l-171.52 271.36s-56.32 101.12-140.8 104.96c-38.4 0-57.6-6.4-76.8-21.76 11.52-17.92 33.28-60.16 33.28-60.16s23.04 20.48 57.6 7.68c20.48-7.68 14.08-39.68 14.08-39.68l-34.56-262.4z" fill="#1A72FE" p-id="3558"></path><path d="M2301.44 450.56c-53.76-20.48-99.84 5.12-122.88 35.84 5.12-21.76 6.4-35.84 6.4-35.84h-93.44l-102.4 376.32h102.4l34.56-131.84s26.88 44.8 75.52 48.64c0 0 88.32 11.52 133.12-69.12 43.52-78.08 51.2-192-33.28-224z m-47.36 167.68c-15.36 35.84-52.48 53.76-81.92 40.96-29.44-12.8-39.68-52.48-24.32-88.32 15.36-35.84 52.48-53.76 81.92-40.96 29.44 14.08 40.96 53.76 24.32 88.32zM2562.56 450.56c-111.36-3.84-179.2 85.76-179.2 174.08s115.2 181.76 252.16 80.64c-24.32-33.28-46.08-55.04-46.08-55.04-37.12 37.12-124.16 33.28-119.04-32h195.84c-1.28 0 61.44-160-103.68-167.68z m35.84 126.72h-120.32c11.52-79.36 130.56-90.88 120.32 0zM2741.76 450.56l-74.24 286.72h96s20.48-131.84 61.44-161.28 72.96-26.88 88.32-25.6c6.4-37.12 26.88-106.24 26.88-106.24-26.88-5.12-74.24 5.12-112.64 56.32 7.68-25.6 14.08-49.92 14.08-49.92h-99.84z" fill="#0E1523" p-id="3559"></path><path d="M2996.48 360.96l-24.32 85.76h161.28l-19.2 90.88h99.84s0-10.24 6.4-48.64c8.96-61.44 115.2-65.28 113.92 3.84-1.28 51.2-39.68 56.32-65.28 57.6-25.6 1.28-330.24 0-330.24 0l-28.16 84.48h175.36l-25.6 102.4h112.64l26.88-104.96s60.16-1.28 84.48-1.28c43.52 0 158.72-28.16 158.72-148.48 0-108.8-119.04-120.32-163.84-120.32-46.08 0-282.88-1.28-282.88-1.28z" fill="#1A72FE" p-id="3560"></path><path d="M3637.76 458.24c-66.56-8.96-108.8-5.12-168.96 6.4l8.96 66.56s76.8-12.8 112.64-2.56c26.88 7.68 15.36 44.8 15.36 44.8s-61.44-24.32-129.28 0c-52.48 19.2-104.96 92.16-48.64 157.44 28.16 25.6 80.64 28.16 133.12-12.8-1.28 10.24-6.4 29.44-6.4 29.44h99.84s43.52-152.32 48.64-172.8c2.56-21.76 26.88-103.68-65.28-116.48z m-62.72 206.08c-16.64 20.48-38.4 24.32-51.2 16.64-15.36-8.96-23.04-32-8.96-51.2 11.52-15.36 55.04-16.64 72.96-15.36 10.24 3.84 2.56 30.72-12.8 49.92z" fill="#1A72FE" p-id="3561"></path></svg>